<svg id="Camada_1" data-name="Camada 1" xmlns="http://www.w3.org/2000/svg" viewBox="0 0 490 490"><defs><style>.cls-1{fill:#fff;stroke:#fff;stroke-miterlimit:10;}</style></defs><path class="cls-1" d="M457.48,123.13,369.5,367a35.8,35.8,0,0,1-7.4,12.19,43.74,43.74,0,0,1-71.82,3.41L235.51,311l-58.22,76.13a43.74,43.74,0,0,1-71.83-3.42,35.75,35.75,0,0,1-7.39-12.19L32.52,189.78a35.94,35.94,0,1,1,67.62-24.39l43.8,121.42L198.1,216a44.25,44.25,0,0,1,6.33-6.69A43.76,43.76,0,0,1,270.67,213l53,69.26L389.86,98.73a35.94,35.94,0,0,1,67.62,24.4Z"/></svg>